<svg xmlns="http://www.w3.org/2000/svg" viewBox="0 0 560 440" width="560" height="440" role="img" aria-label="About Adonai Tuition Center">
  <defs>
    <linearGradient id="abg" x1="0" y1="0" x2="1" y2="1">
      <stop offset="0" stop-color="#DBEAFE"/>
      <stop offset="1" stop-color="#EFF6FF"/>
    </linearGradient>
    <linearGradient id="acard" x1="0" y1="0" x2="1" y2="1">
      <stop offset="0" stop-color="#2563EB"/>
      <stop offset="1" stop-color="#1E3A8A"/>
    </linearGradient>
  </defs>
  <rect width="560" height="440" rx="24" fill="url(#abg)"/>
  <rect x="70" y="70" width="300" height="200" rx="18" fill="url(#acard)"/>
  <rect x="95" y="100" width="180" height="14" rx="7" fill="#FFFFFF" opacity="0.9"/>
  <rect x="95" y="128" width="250" height="10" rx="5" fill="#FFFFFF" opacity="0.6"/>
  <rect x="95" y="150" width="230" height="10" rx="5" fill="#FFFFFF" opacity="0.55"/>
  <rect x="95" y="172" width="200" height="10" rx="5" fill="#FFFFFF" opacity="0.5"/>
  <rect x="95" y="210" width="110" height="30" rx="15" fill="#FBBF24"/>
  <!-- floating badge -->
  <g transform="translate(360 210)">
    <circle r="70" fill="#FFFFFF"/>
    <circle r="70" fill="none" stroke="#FBBF24" stroke-width="4" stroke-dasharray="8 10"/>
    <text y="-6" font-family="Poppins, Segoe UI, sans-serif" font-size="40" font-weight="800" fill="#1E3A8A" text-anchor="middle">15+</text>
    <text y="24" font-family="Poppins, Segoe UI, sans-serif" font-size="15" font-weight="600" fill="#2563EB" text-anchor="middle">Years</text>
  </g>
  <path d="M120 300 l7 16 16 7 -16 7 -7 16 -7 -16 -16 -7 16 -7 Z" fill="#FBBF24"/>
  <circle cx="450" cy="360" r="10" fill="#3B82F6"/>
</svg>
