<svg xmlns="http://www.w3.org/2000/svg" viewBox="0 0 320 100" role="img" aria-label="Adonai Tuition Center"><defs><linearGradient id="badgeGrad" x1="0" y1="0" x2="1" y2="1"><stop offset="0" stop-color="#2C64E0"/><stop offset="0.55" stop-color="#1E49B8"/><stop offset="1" stop-color="#15347F"/></linearGradient></defs><g transform="translate(14 14)"><rect x="0" y="0" width="72" height="72" rx="17" fill="url(#badgeGrad)"/><rect x="1.5" y="1.5" width="69" height="69" rx="15.5" fill="none" stroke="#ffffff" stroke-opacity="0.14" stroke-width="1.5"/><g><path d="M28.39 28.53 L19.56 26.66 L20.15 24.85 Z" fill="#F6C544"/><path d="M29.53 26.30 L25.91 24.50 L26.70 23.42 Z" fill="#F6C544"/><path d="M31.30 24.53 L25.26 17.83 L26.79 16.71 Z" fill="#F6C544"/><path d="M33.53 23.39 L31.66 19.81 L32.93 19.40 Z" fill="#F6C544"/><path d="M36.00 23.00 L35.05 14.03 L36.95 14.03 Z" fill="#F6C544"/><path d="M38.47 23.39 L39.07 19.40 L40.34 19.81 Z" fill="#F6C544"/><path d="M40.70 24.53 L45.21 16.71 L46.74 17.83 Z" fill="#F6C544"/><path d="M42.47 26.30 L45.30 23.42 L46.09 24.50 Z" fill="#F6C544"/><path d="M43.61 28.53 L51.85 24.85 L52.44 26.66 Z" fill="#F6C544"/></g><g><ellipse cx="27.66" cy="65.68" rx="4.4" ry="2.0" fill="#F6C544" transform="rotate(-252.00 27.66 65.68)"/><ellipse cx="20.90" cy="62.38" rx="4.4" ry="2.0" fill="#F6C544" transform="rotate(-236.00 20.90 62.38)"/><ellipse cx="15.32" cy="57.36" rx="4.4" ry="2.0" fill="#F6C544" transform="rotate(-220.00 15.32 57.36)"/><ellipse cx="11.33" cy="50.98" rx="4.4" ry="2.0" fill="#F6C544" transform="rotate(-204.00 11.33 50.98)"/><ellipse cx="9.26" cy="43.76" rx="4.4" ry="2.0" fill="#F6C544" transform="rotate(-188.00 9.26 43.76)"/><ellipse cx="9.26" cy="36.24" rx="4.4" ry="2.0" fill="#F6C544" transform="rotate(-172.00 9.26 36.24)"/><ellipse cx="44.34" cy="65.68" rx="4.4" ry="2.0" fill="#F6C544" transform="rotate(-108.00 44.34 65.68)"/><ellipse cx="51.10" cy="62.38" rx="4.4" ry="2.0" fill="#F6C544" transform="rotate(-124.00 51.10 62.38)"/><ellipse cx="56.68" cy="57.36" rx="4.4" ry="2.0" fill="#F6C544" transform="rotate(-140.00 56.68 57.36)"/><ellipse cx="60.67" cy="50.98" rx="4.4" ry="2.0" fill="#F6C544" transform="rotate(-156.00 60.67 50.98)"/><ellipse cx="62.74" cy="43.76" rx="4.4" ry="2.0" fill="#F6C544" transform="rotate(-172.00 62.74 43.76)"/><ellipse cx="62.74" cy="36.24" rx="4.4" ry="2.0" fill="#F6C544" transform="rotate(172.00 62.74 36.24)"/><path d="M36 68 C24 66 14 56 12 44" fill="none" stroke="#E0A82E" stroke-width="1.6" stroke-linecap="round"/><path d="M36 68 C48 66 58 56 60 44" fill="none" stroke="#E0A82E" stroke-width="1.6" stroke-linecap="round"/></g><g><path d="M36 36 C29 32 20 31 13 33 L13 55 C20 53 29 54 36 58 Z" fill="#ffffff"/><path d="M36 36 C43 32 52 31 59 33 L59 55 C52 53 43 54 36 58 Z" fill="#EAF2FF"/><path d="M36 36 L36 58" stroke="#1E3A8A" stroke-width="1.6" stroke-linecap="round"/><path d="M18 39 C24 38 30 39 33 41 M18 44 C24 43 30 44 33 46" stroke="#9DBBEB" stroke-width="1.1" fill="none" stroke-linecap="round"/><path d="M54 39 C48 38 42 39 39 41 M54 44 C48 43 42 44 39 46" stroke="#9DBBEB" stroke-width="1.1" fill="none" stroke-linecap="round"/><path d="M36 40 L36 50 M32.5 44 L39.5 44" stroke="#F6C544" stroke-width="1.8" stroke-linecap="round"/></g></g><text x="104" y="46" font-family="'Playfair Display', Georgia, serif" font-weight="800" font-size="34" letter-spacing="2" fill="currentColor">ADONAI</text><text x="105" y="70" font-family="'Poppins', 'Segoe UI', sans-serif" font-weight="600" font-size="14.5" letter-spacing="5.5" fill="currentColor">TUITION CENTER</text></svg>